# xmcd
#
# Track frame offsets: 
#        150
#        12135
#        29109
#        46817
#        59592
#        75709
#
# Disc length: 1309 seconds
#
# Revision: 1
# Processed by: cddbd v1.5.2PL0 Copyright (c) Steve Scherf et al.
# Submitted via: ExactAudioCopy v1.0b3
#
DISCID=47051b06
DTITLE=Sóley - Theater Island
DYEAR=2010
DGENRE=Alternative
TTITLE0=Dutla
TTITLE1=Kill the clown
TTITLE2=Theater island
TTITLE3=Blue leaves
TTITLE4=Read your book
TTITLE5=We will put her in two graves
EXTD=
EXTT0=
EXTT1=
EXTT2=
EXTT3=
EXTT4=
EXTT5=
PLAYORDER=
